solid OpenSCAD_Model
  facet normal -0 0 1
    outer loop
      vertex 2.4 115.9 0.8
      vertex 172.4 4.9 0.8
      vertex 172.4 115.9 0.8
    endloop
  endfacet
  facet normal 0 0 1
    outer loop
      vertex 172.4 4.9 0.8
      vertex 2.4 115.9 0.8
      vertex 2.4 4.9 0.8
    endloop
  endfacet
  facet normal 0 0 -1
    outer loop
      vertex 2.4 4.9 0
      vertex 172.4 115.9 0
      vertex 172.4 4.9 0
    endloop
  endfacet
  facet normal -0 0 -1
    outer loop
      vertex 172.4 115.9 0
      vertex 2.4 4.9 0
      vertex 2.4 115.9 0
    endloop
  endfacet
  facet normal 0 -1 0
    outer loop
      vertex 2.4 4.9 0
      vertex 172.4 4.9 0.8
      vertex 2.4 4.9 0.8
    endloop
  endfacet
  facet normal 0 -1 -0
    outer loop
      vertex 172.4 4.9 0.8
      vertex 2.4 4.9 0
      vertex 172.4 4.9 0
    endloop
  endfacet
  facet normal 1 -0 0
    outer loop
      vertex 172.4 4.9 0.8
      vertex 172.4 115.9 0
      vertex 172.4 115.9 0.8
    endloop
  endfacet
  facet normal 1 0 0
    outer loop
      vertex 172.4 115.9 0
      vertex 172.4 4.9 0.8
      vertex 172.4 4.9 0
    endloop
  endfacet
  facet normal 0 1 -0
    outer loop
      vertex 172.4 115.9 0
      vertex 2.4 115.9 0.8
      vertex 172.4 115.9 0.8
    endloop
  endfacet
  facet normal 0 1 0
    outer loop
      vertex 2.4 115.9 0.8
      vertex 172.4 115.9 0
      vertex 2.4 115.9 0
    endloop
  endfacet
  facet normal -1 0 0
    outer loop
      vertex 2.4 4.9 0
      vertex 2.4 115.9 0.8
      vertex 2.4 115.9 0
    endloop
  endfacet
  facet normal -1 -0 0
    outer loop
      vertex 2.4 115.9 0.8
      vertex 2.4 4.9 0
      vertex 2.4 4.9 0.8
    endloop
  endfacet
endsolid OpenSCAD_Model
