# https://github.com/mikedh/trimesh

o OpenSCAD_Model
v 167.80000000 1.45954000 7.66112000
v 7.00000000 1.54038000 7.75962000
v 167.80000000 1.54038000 7.75962000
v 7.00000000 1.45954000 7.66112000
v 167.80000000 1.35000000 7.30000000
v 7.00000000 1.36249000 7.42681000
v 167.80000000 1.36249000 7.42681000
v 7.00000000 1.35000000 7.30000000
v 7.00000000 2.00000000 6.65000000
v 167.80000000 1.87319000 6.66249000
v 167.80000000 2.00000000 6.65000000
v 7.00000000 1.87319000 6.66249000
v 7.00000000 1.63888000 7.84046000
v 167.80000000 1.75126000 7.90052000
v 167.80000000 1.63888000 7.84046000
v 7.00000000 1.75126000 7.90052000
v 167.80000000 1.39948000 7.05126000
v 7.00000000 1.36249000 7.17319000
v 167.80000000 1.36249000 7.17319000
v 7.00000000 1.39948000 7.05126000
v 167.80000000 1.75126000 6.69948000
v 7.00000000 1.75126000 6.69948000
v 167.80000000 1.39948000 7.54874000
v 7.00000000 1.39948000 7.54874000
v 167.80000000 1.63888000 6.75954000
v 7.00000000 1.63888000 6.75954000
v 167.80000000 1.54038000 6.84038000
v 7.00000000 1.45954000 6.93888000
v 167.80000000 1.45954000 6.93888000
v 7.00000000 1.54038000 6.84038000
v 7.00000000 1.87319000 7.93751000
v 7.00000000 2.00000000 7.95000000
v 167.80000000 2.00000000 7.95000000
v 167.80000000 1.87319000 7.93751000
v 7.00000000 116.66100000 6.75954000
v 167.80000000 116.54900000 6.69948000
v 167.80000000 116.66100000 6.75954000
v 7.00000000 116.54900000 6.69948000
v 7.00000000 116.90100000 7.05126000
v 167.80000000 116.93800000 7.17319000
v 7.00000000 116.93800000 7.17319000
v 167.80000000 116.90100000 7.05126000
v 7.00000000 116.76000000 6.84038000
v 167.80000000 116.76000000 6.84038000
v 7.00000000 116.93800000 7.42681000
v 7.00000000 116.95000000 7.30000000
v 7.00000000 116.90100000 7.54874000
v 7.00000000 116.84000000 7.66112000
v 7.00000000 116.84000000 6.93888000
v 7.00000000 116.76000000 7.75962000
v 7.00000000 116.66100000 7.84046000
v 7.00000000 116.54900000 7.90052000
v 7.00000000 116.42700000 7.93751000
v 7.00000000 116.42700000 6.66249000
v 7.00000000 116.30000000 7.95000000
v 7.00000000 116.30000000 6.65000000
v 167.80000000 116.30000000 6.65000000
v 167.80000000 116.42700000 6.66249000
v 167.80000000 116.93800000 7.42681000
v 167.80000000 116.95000000 7.30000000
v 167.80000000 116.66100000 7.84046000
v 167.80000000 116.54900000 7.90052000
v 167.80000000 116.76000000 7.75962000
v 167.80000000 116.84000000 7.66112000
v 167.80000000 116.90100000 7.54874000
v 167.80000000 116.84000000 6.93888000
v 167.80000000 116.42700000 7.93751000
v 167.80000000 116.30000000 7.95000000
v 172.80000000 83.61600000 2.21245000
v 174.80000000 83.00630000 2.39739000
v 174.80000000 83.61600000 2.21245000
v 172.80000000 83.00630000 2.39739000
v 172.80000000 82.44440000 2.69772000
v 174.80000000 81.95190000 3.10190000
v 174.80000000 82.44440000 2.69772000
v 172.80000000 81.95190000 3.10190000
v 172.80000000 81.95190000 7.69810000
v 174.80000000 82.44440000 8.10228000
v 174.80000000 81.95190000 7.69810000
v 172.80000000 82.44440000 8.10228000
v 172.80000000 104.93800000 4.76596000
v 174.80000000 105.00000000 5.40000000
v 172.80000000 105.00000000 5.40000000
v 174.80000000 104.93800000 4.76596000
v 172.80000000 84.25000000 2.15000000
v 174.80000000 84.25000000 2.15000000
v 174.80000000 81.24740000 6.64372000
v 172.80000000 81.54770000 7.20560000
v 174.80000000 81.54770000 7.20560000
v 172.80000000 81.24740000 6.64372000
v 172.80000000 104.45200000 3.59440000
v 174.80000000 104.75300000 4.15628000
v 172.80000000 104.75300000 4.15628000
v 174.80000000 104.45200000 3.59440000
v 172.80000000 104.04800000 3.10190000
v 174.80000000 104.04800000 3.10190000
v 174.80000000 81.06240000 4.76596000
v 172.80000000 81.00000000 5.40000000
v 174.80000000 81.00000000 5.40000000
v 172.80000000 81.06240000 4.76596000
v 174.80000000 81.24740000 4.15628000
v 172.80000000 81.24740000 4.15628000
v 172.80000000 101.75000000 8.65000000
v 174.80000000 102.38400000 8.58755000
v 174.80000000 101.75000000 8.65000000
v 172.80000000 102.38400000 8.58755000
v 172.80000000 104.75300000 6.64372000
v 174.80000000 104.45200000 7.20560000
v 172.80000000 104.45200000 7.20560000
v 174.80000000 104.75300000 6.64372000
v 172.80000000 84.25000000 8.65000000
v 174.80000000 84.25000000 8.65000000
v 172.80000000 83.61600000 8.58755000
v 174.80000000 83.61600000 8.58755000
v 172.80000000 101.75000000 2.15000000
v 174.80000000 101.75000000 2.15000000
v 174.80000000 81.06240000 6.03404000
v 172.80000000 81.06240000 6.03404000
v 172.80000000 102.99400000 8.40261000
v 174.80000000 103.55600000 8.10228000
v 174.80000000 102.99400000 8.40261000
v 172.80000000 103.55600000 8.10228000
v 174.80000000 103.55600000 2.69772000
v 172.80000000 103.55600000 2.69772000
v 172.80000000 102.38400000 2.21245000
v 174.80000000 102.38400000 2.21245000
v 174.80000000 83.00630000 8.40261000
v 172.80000000 83.00630000 8.40261000
v 172.80000000 104.93800000 6.03404000
v 174.80000000 104.93800000 6.03404000
v 174.80000000 104.04800000 7.69810000
v 172.80000000 104.04800000 7.69810000
v 174.80000000 102.99400000 2.39739000
v 172.80000000 102.99400000 2.39739000
v 174.80000000 81.54770000 3.59440000
v 172.80000000 81.54770000 3.59440000
v 172.80000000 59.75260000 4.15628000
v 174.80000000 59.93760000 4.76596000
v 172.80000000 59.93760000 4.76596000
v 174.80000000 59.75260000 4.15628000
v 172.80000000 59.93760000 6.03404000
v 174.80000000 59.75260000 6.64372000
v 172.80000000 59.75260000 6.64372000
v 174.80000000 59.93760000 6.03404000
v 172.80000000 57.38400000 2.21245000
v 174.80000000 56.75000000 2.15000000
v 174.80000000 57.38400000 2.21245000
v 172.80000000 56.75000000 2.15000000
v 172.80000000 52.25000000 8.65000000
v 174.80000000 56.75000000 8.65000000
v 174.80000000 52.25000000 8.65000000
v 172.80000000 56.75000000 8.65000000
v 174.80000000 57.38400000 8.58755000
v 172.80000000 57.38400000 8.58755000
v 174.80000000 52.25000000 2.15000000
v 172.80000000 52.25000000 2.15000000
v 174.80000000 49.95190000 3.10190000
v 172.80000000 49.54770000 3.59440000
v 174.80000000 49.54770000 3.59440000
v 172.80000000 49.95190000 3.10190000
v 172.80000000 59.04810000 3.10190000
v 174.80000000 59.45230000 3.59440000
v 172.80000000 59.45230000 3.59440000
v 174.80000000 59.04810000 3.10190000
v 172.80000000 51.00630000 8.40261000
v 174.80000000 51.61600000 8.58755000
v 174.80000000 51.00630000 8.40261000
v 172.80000000 51.61600000 8.58755000
v 172.80000000 57.99370000 8.40261000
v 174.80000000 58.55560000 8.10228000
v 174.80000000 57.99370000 8.40261000
v 172.80000000 58.55560000 8.10228000
v 174.80000000 59.45230000 7.20560000
v 172.80000000 59.45230000 7.20560000
v 172.80000000 49.95190000 7.69810000
v 174.80000000 50.44440000 8.10228000
v 174.80000000 49.95190000 7.69810000
v 172.80000000 50.44440000 8.10228000
v 172.80000000 57.99370000 2.39739000
v 174.80000000 57.99370000 2.39739000
v 172.80000000 50.44440000 2.69772000
v 174.80000000 50.44440000 2.69772000
v 174.80000000 59.04810000 7.69810000
v 172.80000000 59.04810000 7.69810000
v 174.80000000 49.24740000 4.15628000
v 172.80000000 49.06240000 4.76596000
v 174.80000000 49.06240000 4.76596000
v 172.80000000 49.24740000 4.15628000
v 174.80000000 60.00000000 5.40000000
v 172.80000000 60.00000000 5.40000000
v 172.80000000 58.55560000 2.69772000
v 174.80000000 58.55560000 2.69772000
v 172.80000000 49.00000000 5.40000000
v 174.80000000 49.00000000 5.40000000
v 174.80000000 49.54770000 7.20560000
v 172.80000000 49.54770000 7.20560000
v 174.80000000 49.24740000 6.64372000
v 172.80000000 49.24740000 6.64372000
v 174.80000000 49.06240000 6.03404000
v 172.80000000 49.06240000 6.03404000
v 174.80000000 51.61600000 2.21245000
v 172.80000000 51.61600000 2.21245000
v 174.80000000 51.00630000 2.39739000
v 172.80000000 51.00630000 2.39739000
v 4.02455000 0.09606930 0.00000000
v 5.00000000 0.00000000 9.40000000
v 4.02455000 0.09606930 9.40000000
v 5.00000000 0.00000000 0.00000000
v 171.71300000 0.38060000 0.00000000
v 172.57800000 0.84265100 9.40000000
v 171.71300000 0.38060000 9.40000000
v 172.57800000 0.84265100 0.00000000
v 0.00000000 113.30000000 0.00000000
v 0.09606930 114.27500000 9.40000000
v 0.09606930 114.27500000 0.00000000
v 0.00000000 113.30000000 9.40000000
v 169.80000000 0.00000000 9.40000000
v 169.80000000 0.00000000 0.00000000
v 170.77500000 0.09606930 0.00000000
v 170.77500000 0.09606930 9.40000000
v 3.08658000 0.38060000 0.00000000
v 3.08658000 0.38060000 9.40000000
v 0.09606930 4.02455000 0.00000000
v 0.00000000 5.00000000 9.40000000
v 0.00000000 5.00000000 0.00000000
v 0.09606930 4.02455000 9.40000000
v 4.02455000 118.20400000 0.00000000
v 3.08658000 117.91900000 9.40000000
v 4.02455000 118.20400000 9.40000000
v 3.08658000 117.91900000 0.00000000
v 172.57800000 117.45700000 0.00000000
v 171.71300000 117.91900000 9.40000000
v 172.57800000 117.45700000 9.40000000
v 171.71300000 117.91900000 0.00000000
v 173.95700000 2.22215000 9.40000000
v 174.41900000 3.08658000 0.00000000
v 174.41900000 3.08658000 9.40000000
v 173.95700000 2.22215000 0.00000000
v 0.38060000 115.21300000 9.40000000
v 0.38060000 115.21300000 0.00000000
v 2.22215000 117.45700000 9.40000000
v 2.22215000 117.45700000 0.00000000
v 5.00000000 118.30000000 0.00000000
v 5.00000000 118.30000000 9.40000000
v 173.33600000 1.46446000 9.40000000
v 173.33600000 1.46446000 0.00000000
v 174.70400000 4.02455000 0.00000000
v 174.70400000 4.02455000 9.40000000
v 173.95700000 116.07800000 9.40000000
v 173.33600000 116.83600000 0.00000000
v 173.33600000 116.83600000 9.40000000
v 173.95700000 116.07800000 0.00000000
v 169.80000000 118.30000000 0.00000000
v 169.80000000 118.30000000 9.40000000
v 0.84265100 116.07800000 9.40000000
v 0.84265100 116.07800000 0.00000000
v 2.22215000 0.84265100 0.00000000
v 2.22215000 0.84265100 9.40000000
v 1.46446000 116.83600000 9.40000000
v 1.46446000 116.83600000 0.00000000
v 174.41900000 115.21300000 9.40000000
v 174.41900000 115.21300000 0.00000000
v 174.80000000 113.30000000 9.40000000
v 174.80000000 113.30000000 0.00000000
v 174.80000000 5.00000000 9.40000000
v 174.80000000 5.00000000 0.00000000
v 1.46446000 1.46446000 0.00000000
v 1.46446000 1.46446000 9.40000000
v 174.70400000 114.27500000 0.00000000
v 174.70400000 114.27500000 9.40000000
v 172.80000000 116.30000000 9.40000000
v 172.80000000 2.00000000 9.40000000
v 170.77500000 118.20400000 9.40000000
v 2.00000000 116.30000000 9.40000000
v 2.00000000 2.00000000 9.40000000
v 0.84265100 2.22215000 9.40000000
v 0.38060000 3.08658000 9.40000000
v 0.84265100 2.22215000 0.00000000
v 0.38060000 3.08658000 0.00000000
v 170.77500000 118.20400000 0.00000000
v 170.40000000 13.98000000 0.00000000
v 170.40000000 114.70000000 0.00000000
v 4.40000000 13.98000000 0.00000000
v 4.40000000 114.70000000 0.00000000
v 172.80000000 116.30000000 1.20000000
v 172.80000000 2.00000000 1.20000000
v 169.47000000 14.91020000 1.20000000
v 169.47000000 113.77000000 1.20000000
v 5.33023000 113.77000000 1.20000000
v 2.00000000 116.30000000 1.20000000
v 5.33023000 14.91020000 1.20000000
v 2.00000000 2.00000000 1.20000000
f 1 2 3
f 2 1 4
f 5 6 7
f 6 5 8
f 9 10 11
f 10 9 12
f 13 14 15
f 14 13 16
f 17 18 19
f 18 17 20
f 12 21 10
f 21 12 22
f 23 4 1
f 4 23 24
f 22 25 21
f 25 22 26
f 27 28 29
f 28 27 30
f 26 27 25
f 27 26 30
f 31 9 32
f 31 12 9
f 16 12 31
f 16 22 12
f 13 22 16
f 13 26 22
f 2 26 13
f 2 30 26
f 4 30 2
f 4 28 30
f 24 28 4
f 24 20 28
f 6 20 24
f 6 18 20
f 18 6 8
f 29 20 17
f 20 29 28
f 31 33 34
f 33 31 32
f 19 8 5
f 8 19 18
f 2 15 3
f 15 2 13
f 16 34 14
f 34 16 31
f 10 33 11
f 10 34 33
f 21 34 10
f 21 14 34
f 25 14 21
f 25 15 14
f 27 15 25
f 27 3 15
f 29 3 27
f 29 1 3
f 17 1 29
f 17 23 1
f 19 23 17
f 19 7 23
f 7 19 5
f 7 24 23
f 24 7 6
f 35 36 37
f 36 35 38
f 39 40 41
f 40 39 42
f 43 37 44
f 37 43 35
f 45 41 46
f 47 41 45
f 47 39 41
f 48 39 47
f 48 49 39
f 50 49 48
f 50 43 49
f 51 43 50
f 51 35 43
f 52 35 51
f 52 38 35
f 53 38 52
f 53 54 38
f 55 54 53
f 54 55 56
f 54 57 58
f 57 54 56
f 46 59 45
f 59 46 60
f 52 61 62
f 61 52 51
f 48 63 50
f 63 48 64
f 47 64 48
f 64 47 65
f 45 65 47
f 65 45 59
f 38 58 36
f 58 38 54
f 49 42 39
f 42 49 66
f 41 60 46
f 60 41 40
f 43 66 49
f 66 43 44
f 53 62 67
f 62 53 52
f 51 63 61
f 63 51 50
f 55 67 68
f 67 55 53
f 40 59 60
f 42 59 40
f 42 65 59
f 66 65 42
f 66 64 65
f 44 64 66
f 44 63 64
f 37 63 44
f 37 61 63
f 36 61 37
f 36 62 61
f 58 62 36
f 58 67 62
f 57 67 58
f 67 57 68
f 69 70 71
f 70 69 72
f 73 74 75
f 74 73 76
f 77 78 79
f 78 77 80
f 81 82 83
f 82 81 84
f 85 71 86
f 71 85 69
f 87 88 89
f 88 87 90
f 91 92 93
f 92 91 94
f 95 94 91
f 94 95 96
f 97 98 99
f 98 97 100
f 93 84 81
f 84 93 92
f 101 100 97
f 100 101 102
f 103 104 105
f 104 103 106
f 107 108 109
f 108 107 110
f 89 77 79
f 77 89 88
f 111 105 112
f 105 111 103
f 113 112 114
f 112 113 111
f 115 86 116
f 86 115 85
f 117 90 87
f 90 117 118
f 119 120 121
f 120 119 122
f 95 123 96
f 123 95 124
f 125 116 126
f 116 125 115
f 80 127 78
f 127 80 128
f 128 114 127
f 114 128 113
f 129 110 107
f 110 129 130
f 99 118 117
f 118 99 98
f 122 131 120
f 131 122 132
f 106 121 104
f 121 106 119
f 124 133 123
f 133 124 134
f 83 130 129
f 130 83 82
f 109 131 132
f 131 109 108
f 134 126 133
f 126 134 125
f 72 75 70
f 75 72 73
f 135 102 101
f 102 135 136
f 74 136 135
f 136 74 76
f 137 138 139
f 138 137 140
f 141 142 143
f 142 141 144
f 145 146 147
f 146 145 148
f 149 150 151
f 150 149 152
f 152 153 150
f 153 152 154
f 148 155 146
f 155 148 156
f 157 158 159
f 158 157 160
f 161 162 163
f 162 161 164
f 165 166 167
f 166 165 168
f 169 170 171
f 170 169 172
f 143 173 174
f 173 143 142
f 175 176 177
f 176 175 178
f 154 171 153
f 171 154 169
f 179 147 180
f 147 179 145
f 181 157 182
f 157 181 160
f 174 183 184
f 183 174 173
f 185 186 187
f 186 185 188
f 159 188 185
f 188 159 158
f 172 183 170
f 183 172 184
f 168 151 166
f 151 168 149
f 139 189 190
f 189 139 138
f 191 180 192
f 180 191 179
f 187 193 194
f 193 187 186
f 163 140 137
f 140 163 162
f 178 167 176
f 167 178 165
f 195 175 177
f 175 195 196
f 197 196 195
f 196 197 198
f 199 198 197
f 198 199 200
f 190 144 141
f 144 190 189
f 161 192 164
f 192 161 191
f 194 200 199
f 200 194 193
f 156 201 155
f 201 156 202
f 202 203 201
f 203 202 204
f 204 182 203
f 182 204 181
f 205 206 207
f 206 205 208
f 209 210 211
f 210 209 212
f 213 214 215
f 214 213 216
f 208 217 206
f 217 208 218
f 219 211 220
f 211 219 209
f 221 207 222
f 207 221 205
f 218 220 217
f 220 218 219
f 223 224 225
f 224 223 226
f 227 228 229
f 228 227 230
f 231 232 233
f 232 231 234
f 235 236 237
f 236 235 238
f 225 216 213
f 216 225 224
f 215 239 240
f 239 215 214
f 230 241 228
f 241 230 242
f 243 229 244
f 229 243 227
f 212 245 210
f 245 212 246
f 237 247 248
f 247 237 236
f 249 250 251
f 250 249 252
f 253 244 254
f 244 253 243
f 240 255 256
f 255 240 239
f 257 222 258
f 222 257 221
f 256 259 260
f 259 256 255
f 261 252 249
f 252 261 262
f 263 82 264
f 263 130 82
f 263 110 130
f 263 108 110
f 263 131 108
f 263 120 131
f 263 121 120
f 263 104 121
f 263 105 104
f 263 112 105
f 117 189 99
f 144 117 87
f 142 87 89
f 173 89 79
f 183 79 78
f 170 78 127
f 171 127 114
f 117 144 189
f 87 142 144
f 153 114 112
f 89 173 142
f 79 183 173
f 78 170 183
f 150 112 263
f 127 171 170
f 114 153 171
f 112 150 153
f 263 151 150
f 199 265 194
f 197 265 199
f 195 265 197
f 177 265 195
f 176 265 177
f 167 265 176
f 166 265 167
f 151 265 166
f 265 151 263
f 84 264 82
f 92 264 84
f 94 264 92
f 96 264 94
f 123 264 96
f 133 264 123
f 126 264 133
f 116 264 126
f 86 264 116
f 189 97 99
f 138 97 189
f 97 138 101
f 140 101 138
f 101 140 135
f 162 135 140
f 135 162 74
f 164 74 162
f 74 164 75
f 192 75 164
f 75 192 70
f 180 70 192
f 70 180 71
f 147 71 180
f 71 147 86
f 146 86 147
f 86 146 264
f 155 264 146
f 266 194 265
f 194 266 187
f 187 266 185
f 185 266 159
f 159 266 157
f 157 266 182
f 182 266 203
f 155 266 264
f 201 266 155
f 203 266 201
f 242 259 241
f 259 242 260
f 250 233 251
f 233 250 231
f 267 258 268
f 258 267 257
f 263 269 270
f 269 263 264
f 271 263 270
f 263 271 265
f 271 270 261
f 272 265 271
f 271 261 249
f 265 272 248
f 271 249 251
f 248 272 237
f 237 272 235
f 233 271 251
f 232 271 233
f 273 271 232
f 254 271 273
f 244 271 254
f 274 244 229
f 274 229 228
f 274 228 241
f 244 274 271
f 255 274 259
f 259 274 241
f 235 272 245
f 272 210 245
f 272 211 210
f 272 220 211
f 272 217 220
f 272 206 217
f 275 206 272
f 206 275 207
f 207 275 222
f 222 275 258
f 275 268 258
f 274 216 275
f 239 274 255
f 224 275 216
f 214 274 239
f 226 275 224
f 274 214 216
f 275 276 268
f 275 277 276
f 275 226 277
f 278 277 279
f 277 278 276
f 248 266 265
f 266 248 247
f 280 254 273
f 254 280 253
f 279 226 223
f 226 279 277
f 270 262 261
f 262 270 269
f 267 276 278
f 276 267 268
f 234 273 232
f 273 234 280
f 218 266 247
f 266 281 264
f 218 247 236
f 282 264 281
f 218 236 238
f 264 282 269
f 218 238 246
f 269 282 262
f 218 246 212
f 262 282 252
f 218 212 209
f 252 282 250
f 218 209 219
f 250 282 231
f 231 282 234
f 266 218 281
f 208 281 218
f 208 283 281
f 208 225 283
f 225 208 205
f 234 282 280
f 282 253 280
f 282 243 253
f 284 243 282
f 284 227 243
f 213 283 225
f 225 205 221
f 283 213 284
f 225 221 257
f 215 284 213
f 225 257 267
f 284 230 227
f 225 267 278
f 284 242 230
f 225 278 279
f 284 260 242
f 225 279 223
f 284 256 260
f 284 240 256
f 284 215 240
f 245 238 235
f 238 245 246
f 285 83 271
f 285 81 83
f 285 93 81
f 285 91 93
f 285 95 91
f 285 124 95
f 285 134 124
f 285 125 134
f 285 115 125
f 285 85 115
f 100 190 98
f 139 100 102
f 137 102 136
f 163 136 76
f 161 76 73
f 191 73 72
f 179 72 69
f 100 139 190
f 102 137 139
f 145 69 85
f 136 163 137
f 76 161 163
f 73 191 161
f 148 85 285
f 72 179 191
f 69 145 179
f 85 148 145
f 285 156 148
f 186 286 193
f 188 286 186
f 158 286 188
f 160 286 158
f 181 286 160
f 204 286 181
f 202 286 204
f 156 286 202
f 286 156 285
f 129 271 83
f 107 271 129
f 109 271 107
f 132 271 109
f 122 271 132
f 119 271 122
f 106 271 119
f 103 271 106
f 111 271 103
f 190 118 98
f 141 118 190
f 118 141 90
f 143 90 141
f 90 143 88
f 174 88 143
f 88 174 77
f 184 77 174
f 77 184 80
f 172 80 184
f 80 172 128
f 169 128 172
f 128 169 113
f 154 113 169
f 113 154 111
f 152 111 154
f 111 152 271
f 149 271 152
f 272 193 286
f 193 272 200
f 200 272 198
f 198 272 196
f 196 272 175
f 175 272 178
f 178 272 165
f 149 272 271
f 168 272 149
f 165 272 168
f 287 285 288
f 285 289 288
f 289 290 291
f 290 289 285
f 285 287 286
f 291 286 287
f 291 292 286
f 292 291 290
f 275 290 274
f 290 275 292
f 274 55 271
f 274 56 55
f 56 290 57
f 290 56 274
f 68 271 55
f 57 271 68
f 57 285 271
f 285 57 290
f 272 33 275
f 272 11 33
f 11 286 9
f 286 11 272
f 32 275 33
f 9 275 32
f 9 292 275
f 292 9 286
f 282 287 288
f 287 282 281
f 291 284 289
f 284 291 283
f 281 291 287
f 291 281 283
f 284 288 289
f 288 284 282

