# https://github.com/mikedh/trimesh

o OpenSCAD_Model
v 172.65000000 13.36240000 5.83404000
v 172.65000000 2.15000000 7.20000000
v 172.65000000 13.30000000 5.20000000
v 172.65000000 13.54740000 6.44372000
v 172.65000000 13.84770000 7.00560000
v 172.65000000 14.00730000 7.20000000
v 172.65000000 58.36240000 5.83404000
v 172.65000000 37.30000000 5.20000000
v 172.65000000 58.30000000 5.20000000
v 172.65000000 37.23760000 5.83404000
v 172.65000000 58.54740000 6.44372000
v 172.65000000 37.05260000 6.44372000
v 172.65000000 58.84770000 7.00560000
v 172.65000000 36.75230000 7.00560000
v 172.65000000 59.00730000 7.20000000
v 172.65000000 36.59270000 7.20000000
v 172.65000000 116.15000000 7.20000000
v 172.65000000 69.30000000 5.20000000
v 172.65000000 116.15000000 1.20000000
v 172.65000000 69.23750000 5.83404000
v 172.65000000 69.05260000 6.44372000
v 172.65000000 68.75230000 7.00560000
v 172.65000000 68.59270000 7.20000000
v 172.65000000 69.23750000 4.56596000
v 172.65000000 69.05260000 3.95628000
v 172.65000000 68.75230000 3.39440000
v 172.65000000 68.34810000 2.90190000
v 172.65000000 67.85560000 2.49772000
v 172.65000000 67.29370000 2.19739000
v 172.65000000 66.68400000 2.01245000
v 172.65000000 66.05000000 1.95000000
v 172.65000000 61.55000000 1.95000000
v 172.65000000 58.36240000 4.56596000
v 172.65000000 37.23760000 4.56596000
v 172.65000000 58.54740000 3.95628000
v 172.65000000 37.05260000 3.95628000
v 172.65000000 58.84770000 3.39440000
v 172.65000000 36.75230000 3.39440000
v 172.65000000 59.25190000 2.90190000
v 172.65000000 36.34810000 2.90190000
v 172.65000000 59.74440000 2.49772000
v 172.65000000 35.85560000 2.49772000
v 172.65000000 60.30630000 2.19739000
v 172.65000000 35.29370000 2.19739000
v 172.65000000 60.91600000 2.01245000
v 172.65000000 34.68400000 2.01245000
v 172.65000000 34.05000000 1.95000000
v 172.65000000 2.15000000 1.20000000
v 172.65000000 16.55000000 1.95000000
v 172.65000000 13.36240000 4.56596000
v 172.65000000 13.54740000 3.95628000
v 172.65000000 13.84770000 3.39440000
v 172.65000000 14.25190000 2.90190000
v 172.65000000 14.74440000 2.49772000
v 172.65000000 15.91600000 2.01245000
v 172.65000000 15.30630000 2.19739000
v 68.40000000 116.15000000 7.20000000
v 3.35000000 114.95000000 7.20000000
v 68.40000000 114.95000000 7.20000000
v 2.15000000 116.15000000 7.20000000
v 3.35000000 3.35000000 7.20000000
v 171.45000000 3.35000000 7.20000000
v 171.45000000 14.00730000 7.20000000
v 2.15000000 2.15000000 7.20000000
v 171.45000000 114.95000000 7.20000000
v 106.40000000 116.15000000 7.20000000
v 106.40000000 114.95000000 7.20000000
v 171.45000000 68.59270000 7.20000000
v 171.45000000 59.00730000 7.20000000
v 171.45000000 36.59270000 7.20000000
v 2.15000000 2.15000000 1.20000000
v 2.15000000 116.15000000 1.20000000
v 94.40000000 2.15000000 2.72152000
v 135.80000000 2.15000000 3.87848000
v 94.40000000 2.15000000 3.87848000
v 135.80000000 2.15000000 2.72152000
v 39.00000000 2.15000000 2.72152000
v 80.40000000 2.15000000 3.87848000
v 39.00000000 2.15000000 3.87848000
v 80.40000000 2.15000000 2.72152000
v 25.00000000 2.15000000 3.87848000
v 25.00000000 2.15000000 2.72152000
v 149.80000000 2.15000000 3.87848000
v 149.80000000 2.15000000 2.72152000
v 135.80000000 116.15000000 3.87848000
v 149.80000000 116.15000000 3.87848000
v 149.80000000 116.15000000 2.72152000
v 135.80000000 116.15000000 2.72152000
v 106.40000000 116.15000000 1.20000000
v 39.00000000 116.15000000 3.87848000
v 68.40000000 116.15000000 1.20000000
v 39.00000000 116.15000000 2.72152000
v 25.00000000 116.15000000 3.87848000
v 25.00000000 116.15000000 2.72152000
v 171.45000000 13.36240000 4.56596000
v 171.45000000 11.10000000 2.20000000
v 171.45000000 13.30000000 5.20000000
v 171.45000000 13.54740000 3.95628000
v 171.45000000 13.84770000 3.39440000
v 171.45000000 14.25190000 2.90190000
v 171.45000000 14.74440000 2.49772000
v 171.45000000 15.30140000 2.20000000
v 171.45000000 13.36240000 5.83404000
v 171.45000000 13.54740000 6.44372000
v 171.45000000 3.35000000 1.20000000
v 171.45000000 13.84770000 7.00560000
v 171.45000000 11.10000000 1.20000000
v 171.45000000 53.10000000 1.20000000
v 171.45000000 39.50000000 1.20000000
v 171.45000000 53.10000000 2.20000000
v 171.45000000 67.80000000 1.20000000
v 171.45000000 67.29370000 2.19739000
v 171.45000000 67.80000000 2.20000000
v 171.45000000 66.68400000 2.01245000
v 171.45000000 66.05000000 1.95000000
v 171.45000000 61.55000000 1.95000000
v 171.45000000 59.80000000 1.20000000
v 171.45000000 60.91600000 2.01245000
v 171.45000000 60.30630000 2.19739000
v 171.45000000 59.80000000 2.20000000
v 171.45000000 59.74440000 2.49772000
v 171.45000000 59.25190000 2.90190000
v 171.45000000 58.36240000 4.56596000
v 171.45000000 58.30000000 5.20000000
v 171.45000000 58.54740000 3.95628000
v 171.45000000 58.84770000 3.39440000
v 171.45000000 74.50000000 2.20000000
v 171.45000000 69.23750000 4.56596000
v 171.45000000 69.30000000 5.20000000
v 171.45000000 69.05260000 3.95628000
v 171.45000000 68.75230000 3.39440000
v 171.45000000 68.34810000 2.90190000
v 171.45000000 67.85560000 2.49772000
v 171.45000000 114.95000000 1.20000000
v 171.45000000 74.50000000 1.20000000
v 171.45000000 69.23750000 5.83404000
v 171.45000000 69.05260000 6.44372000
v 171.45000000 68.75230000 7.00560000
v 171.45000000 58.36240000 5.83404000
v 171.45000000 58.54740000 6.44372000
v 171.45000000 58.84770000 7.00560000
v 171.45000000 36.75230000 7.00560000
v 171.45000000 39.50000000 2.20000000
v 171.45000000 37.05260000 6.44372000
v 171.45000000 37.23760000 5.83404000
v 171.45000000 37.30000000 5.20000000
v 171.45000000 37.23760000 4.56596000
v 171.45000000 37.05260000 3.95628000
v 171.45000000 36.75230000 3.39440000
v 171.45000000 36.34810000 2.90190000
v 171.45000000 35.85560000 2.49772000
v 171.45000000 35.29860000 2.20000000
v 171.45000000 21.30000000 1.20000000
v 171.45000000 29.30000000 1.95000000
v 171.45000000 29.30000000 1.20000000
v 171.45000000 21.30000000 1.95000000
v 3.35000000 114.95000000 1.20000000
v 3.35000000 3.35000000 1.20000000
v 68.40000000 114.95000000 1.20000000
v 106.40000000 114.95000000 1.20000000
v 8.80000000 55.30000000 1.20000000
v 9.60000000 47.30000000 1.20000000
v 9.60000000 55.30000000 1.20000000
v 8.80000000 47.30000000 1.20000000
v 31.00000000 68.70000000 1.20000000
v 9.60000000 68.70000000 1.20000000
v 31.00000000 33.90000000 1.20000000
v 9.60000000 33.90000000 1.20000000
v 53.80000000 101.20000000 1.20000000
v 54.60000000 93.20000000 1.20000000
v 54.60000000 101.20000000 1.20000000
v 53.80000000 93.20000000 1.20000000
v 39.00000000 68.70000000 1.20000000
v 60.40000000 55.30000000 1.20000000
v 60.40000000 68.70000000 1.20000000
v 60.40000000 47.30000000 1.20000000
v 39.00000000 33.90000000 1.20000000
v 60.40000000 33.90000000 1.20000000
v 61.20000000 47.30000000 1.20000000
v 61.20000000 55.30000000 1.20000000
v 67.00000000 9.30000000 1.20000000
v 58.00000000 7.30000000 1.20000000
v 66.00000000 7.30000000 1.20000000
v 50.00000000 9.30000000 1.20000000
v 58.00000000 4.30000000 1.20000000
v 100.75000000 21.30000000 1.20000000
v 67.00000000 21.30000000 1.20000000
v 100.75000000 11.10000000 1.20000000
v 83.50000000 80.90000000 1.20000000
v 61.20000000 69.50000000 1.20000000
v 53.80000000 80.90000000 1.20000000
v 39.00000000 69.50000000 1.20000000
v 83.50000000 112.70000000 1.20000000
v 54.60000000 112.70000000 1.20000000
v 83.50000000 81.70000000 1.20000000
v 54.60000000 81.70000000 1.20000000
v 83.50000000 113.50000000 1.20000000
v 53.80000000 113.50000000 1.20000000
v 31.00000000 69.50000000 1.20000000
v 8.80000000 69.50000000 1.20000000
v 66.00000000 23.30000000 1.20000000
v 66.00000000 26.30000000 1.20000000
v 58.00000000 23.30000000 1.20000000
v 50.00000000 21.30000000 1.20000000
v 91.50000000 80.90000000 1.20000000
v 61.20000000 33.10000000 1.20000000
v 58.00000000 26.30000000 1.20000000
v 39.00000000 33.10000000 1.20000000
v 50.00000000 20.30000000 1.20000000
v 31.00000000 33.10000000 1.20000000
v 50.00000000 10.30000000 1.20000000
v 66.00000000 20.30000000 1.20000000
v 63.50000000 15.30000000 1.20000000
v 66.00000000 10.30000000 1.20000000
v 63.47120000 15.59260000 1.20000000
v 63.38580000 15.87400000 1.20000000
v 63.24720000 16.13340000 1.20000000
v 63.06070000 16.36070000 1.20000000
v 62.83340000 16.54720000 1.20000000
v 62.57400000 16.68580000 1.20000000
v 62.29260000 16.77120000 1.20000000
v 62.00000000 16.80000000 1.20000000
v 61.70740000 16.77120000 1.20000000
v 61.42600000 16.68580000 1.20000000
v 60.52880000 15.59260000 1.20000000
v 60.50000000 15.30000000 1.20000000
v 60.61420000 15.87400000 1.20000000
v 60.75280000 16.13340000 1.20000000
v 60.93930000 16.36070000 1.20000000
v 61.16660000 16.54720000 1.20000000
v 63.47120000 15.00740000 1.20000000
v 63.38580000 14.72600000 1.20000000
v 63.24720000 14.46660000 1.20000000
v 63.06070000 14.23930000 1.20000000
v 62.83340000 14.05280000 1.20000000
v 62.57400000 13.91420000 1.20000000
v 62.29260000 13.82880000 1.20000000
v 62.00000000 13.80000000 1.20000000
v 61.70740000 13.82880000 1.20000000
v 61.42600000 13.91420000 1.20000000
v 61.16660000 14.05280000 1.20000000
v 60.52880000 15.00740000 1.20000000
v 60.61420000 14.72600000 1.20000000
v 60.75280000 14.46660000 1.20000000
v 60.93930000 14.23930000 1.20000000
v 100.75000000 29.30000000 1.20000000
v 101.55000000 21.30000000 1.20000000
v 101.55000000 29.30000000 1.20000000
v 174.80000000 113.30000000 1.20000000
v 174.70400000 114.27500000 1.20000000
v 174.80000000 5.00001000 1.20000000
v 174.41900000 115.21300000 1.20000000
v 173.95700000 116.07800000 1.20000000
v 174.70400000 4.02456000 1.20000000
v 173.33600000 116.83600000 1.20000000
v 174.41900000 3.08659000 1.20000000
v 173.95700000 2.22216000 1.20000000
v 172.57800000 117.45700000 1.20000000
v 171.71300000 117.91900000 1.20000000
v 170.77500000 118.20400000 1.20000000
v 169.80000000 118.30000000 1.20000000
v 91.50000000 113.50000000 1.20000000
v 91.50000000 112.70000000 1.20000000
v 91.50000000 81.70000000 1.20000000
v 5.00000000 118.30000000 1.20000000
v 4.02455000 118.20400000 1.20000000
v 3.08658000 117.91900000 1.20000000
v 2.22215000 117.45700000 1.20000000
v 0.84265100 116.07800000 1.20000000
v 1.46446000 116.83600000 1.20000000
v 173.33600000 1.46447000 1.20000000
v 172.57800000 0.84266400 1.20000000
v 171.71300000 0.38061200 1.20000000
v 170.77500000 0.09608150 1.20000000
v 169.80000000 0.00001221 1.20000000
v 5.00000000 0.00001221 1.20000000
v 4.02455000 0.09608150 1.20000000
v 3.08658000 0.38061200 1.20000000
v 2.22215000 0.84266400 1.20000000
v 1.46446000 1.46447000 1.20000000
v 0.00000000 113.30000000 1.20000000
v 0.38060000 115.21300000 1.20000000
v 0.00000000 5.00001000 1.20000000
v 0.09606930 114.27500000 1.20000000
v 0.09606930 4.02456000 1.20000000
v 0.84265100 2.22216000 1.20000000
v 0.38060000 3.08659000 1.20000000
v 120.40000000 101.20000000 1.20000000
v 120.40000000 112.70000000 1.20000000
v 120.40000000 93.20000000 1.20000000
v 120.40000000 81.70000000 1.20000000
v 121.20000000 93.20000000 1.20000000
v 121.20000000 101.20000000 1.20000000
v 132.45000000 38.70000000 1.20000000
v 101.55000000 38.70000000 1.20000000
v 132.45000000 11.90000000 1.20000000
v 101.55000000 11.90000000 1.20000000
v 144.75000000 67.80000000 1.20000000
v 145.55000000 59.80000000 1.20000000
v 145.55000000 67.80000000 1.20000000
v 144.75000000 59.80000000 1.20000000
v 154.45000000 73.70000000 1.20000000
v 145.55000000 73.70000000 1.20000000
v 154.45000000 53.90000000 1.20000000
v 145.55000000 53.90000000 1.20000000
v 162.45000000 74.50000000 1.20000000
v 162.45000000 73.70000000 1.20000000
v 162.45000000 53.90000000 1.20000000
v 154.45000000 74.50000000 1.20000000
v 144.75000000 74.50000000 1.20000000
v 121.20000000 80.90000000 1.20000000
v 132.45000000 39.50000000 1.20000000
v 140.45000000 38.70000000 1.20000000
v 140.45000000 39.50000000 1.20000000
v 140.45000000 11.90000000 1.20000000
v 144.75000000 53.10000000 1.20000000
v 121.20000000 113.50000000 1.20000000
v 171.35000000 67.80000000 1.20000000
v 171.35000000 73.70000000 1.20000000
v 171.35000000 59.80000000 1.20000000
v 171.35000000 53.90000000 1.20000000
v 162.45000000 53.10000000 1.20000000
v 154.45000000 53.10000000 1.20000000
v 171.35000000 29.30000000 1.20000000
v 171.35000000 38.70000000 1.20000000
v 171.35000000 21.30000000 1.20000000
v 171.35000000 11.90000000 1.20000000
v 140.45000000 11.10000000 1.20000000
v 132.45000000 11.10000000 1.20000000
v 66.00000000 4.30000000 1.20000000
v 8.80000000 33.10000000 1.20000000
v 100.75000000 39.50000000 1.20000000
v 39.00000000 116.60000000 3.30000000
v 25.00000000 116.58800000 3.41705000
v 39.00000000 116.58800000 3.41705000
v 25.00000000 116.60000000 3.30000000
v 25.00000000 116.23000000 2.74567000
v 39.00000000 116.33300000 2.80112000
v 39.00000000 116.23000000 2.74567000
v 25.00000000 116.33300000 2.80112000
v 39.00000000 116.58800000 3.18295000
v 25.00000000 116.58800000 3.18295000
v 39.00000000 116.42400000 2.87574000
v 25.00000000 116.49900000 2.96666000
v 39.00000000 116.49900000 2.96666000
v 25.00000000 116.42400000 2.87574000
v 25.00000000 116.55400000 3.52961000
v 39.00000000 116.55400000 3.52961000
v 39.00000000 116.49900000 3.63334000
v 25.00000000 116.42400000 3.72426000
v 39.00000000 116.42400000 3.72426000
v 25.00000000 116.49900000 3.63334000
v 39.00000000 116.55400000 3.07039000
v 39.00000000 116.33300000 3.79888000
v 39.00000000 116.23000000 3.85433000
v 25.00000000 116.55400000 3.07039000
v 25.00000000 116.23000000 3.85433000
v 25.00000000 116.33300000 3.79888000
v 149.80000000 116.60000000 3.30000000
v 135.80000000 116.58800000 3.41705000
v 149.80000000 116.58800000 3.41705000
v 135.80000000 116.60000000 3.30000000
v 135.80000000 116.23000000 2.74567000
v 149.80000000 116.33300000 2.80112000
v 149.80000000 116.23000000 2.74567000
v 135.80000000 116.33300000 2.80112000
v 149.80000000 116.58800000 3.18295000
v 135.80000000 116.58800000 3.18295000
v 149.80000000 116.42400000 2.87574000
v 135.80000000 116.49900000 2.96666000
v 149.80000000 116.49900000 2.96666000
v 135.80000000 116.42400000 2.87574000
v 135.80000000 116.55400000 3.52961000
v 149.80000000 116.55400000 3.52961000
v 149.80000000 116.49900000 3.63334000
v 135.80000000 116.42400000 3.72426000
v 149.80000000 116.42400000 3.72426000
v 135.80000000 116.49900000 3.63334000
v 149.80000000 116.55400000 3.07039000
v 149.80000000 116.33300000 3.79888000
v 149.80000000 116.23000000 3.85433000
v 135.80000000 116.55400000 3.07039000
v 135.80000000 116.23000000 3.85433000
v 135.80000000 116.33300000 3.79888000
v 25.00000000 2.07039000 3.85433000
v 39.00000000 1.96666000 3.79888000
v 39.00000000 2.07039000 3.85433000
v 25.00000000 1.96666000 3.79888000
v 25.00000000 1.71153000 3.41705000
v 39.00000000 1.74567000 3.52961000
v 25.00000000 1.74567000 3.52961000
v 39.00000000 1.71153000 3.41705000
v 25.00000000 1.80112000 3.63334000
v 39.00000000 1.87574000 3.72426000
v 25.00000000 1.87574000 3.72426000
v 39.00000000 1.80112000 3.63334000
v 25.00000000 1.87574000 2.87574000
v 39.00000000 1.80112000 2.96666000
v 25.00000000 1.80112000 2.96666000
v 39.00000000 1.87574000 2.87574000
v 39.00000000 1.96666000 2.80112000
v 39.00000000 2.07039000 2.74567000
v 39.00000000 1.74567000 3.07039000
v 39.00000000 1.71153000 3.18295000
v 39.00000000 1.70000000 3.30000000
v 25.00000000 2.07039000 2.74567000
v 25.00000000 1.70000000 3.30000000
v 25.00000000 1.96666000 2.80112000
v 25.00000000 1.71153000 3.18295000
v 25.00000000 1.74567000 3.07039000
v 80.40000000 2.07039000 3.85433000
v 94.40000000 1.96666000 3.79888000
v 94.40000000 2.07039000 3.85433000
v 80.40000000 1.96666000 3.79888000
v 80.40000000 1.71153000 3.41705000
v 94.40000000 1.74567000 3.52961000
v 80.40000000 1.74567000 3.52961000
v 94.40000000 1.71153000 3.41705000
v 80.40000000 1.80112000 3.63334000
v 94.40000000 1.87574000 3.72426000
v 80.40000000 1.87574000 3.72426000
v 94.40000000 1.80112000 3.63334000
v 80.40000000 1.87574000 2.87574000
v 94.40000000 1.80112000 2.96666000
v 80.40000000 1.80112000 2.96666000
v 94.40000000 1.87574000 2.87574000
v 94.40000000 1.96666000 2.80112000
v 94.40000000 2.07039000 2.74567000
v 94.40000000 1.74567000 3.07039000
v 94.40000000 1.71153000 3.18295000
v 94.40000000 1.70000000 3.30000000
v 80.40000000 2.07039000 2.74567000
v 80.40000000 1.70000000 3.30000000
v 80.40000000 1.96666000 2.80112000
v 80.40000000 1.71153000 3.18295000
v 80.40000000 1.74567000 3.07039000
v 149.80000000 2.07039000 3.85433000
v 135.80000000 2.07039000 3.85433000
v 149.80000000 1.96666000 3.79888000
v 135.80000000 1.96666000 3.79888000
v 135.80000000 1.71153000 3.41705000
v 149.80000000 1.74567000 3.52961000
v 135.80000000 1.74567000 3.52961000
v 149.80000000 1.71153000 3.41705000
v 135.80000000 1.80112000 3.63334000
v 149.80000000 1.87574000 3.72426000
v 135.80000000 1.87574000 3.72426000
v 149.80000000 1.80112000 3.63334000
v 135.80000000 1.87574000 2.87574000
v 149.80000000 1.80112000 2.96666000
v 135.80000000 1.80112000 2.96666000
v 149.80000000 1.87574000 2.87574000
v 149.80000000 1.96666000 2.80112000
v 149.80000000 2.07039000 2.74567000
v 149.80000000 1.74567000 3.07039000
v 149.80000000 1.71153000 3.18295000
v 149.80000000 1.70000000 3.30000000
v 135.80000000 2.07039000 2.74567000
v 135.80000000 1.70000000 3.30000000
v 135.80000000 1.96666000 2.80112000
v 135.80000000 1.71153000 3.18295000
v 135.80000000 1.74567000 3.07039000
v 121.20000000 80.90000000 2.20000000
v 121.20000000 93.20000000 2.20000000
v 121.20000000 101.20000000 2.20000000
v 121.20000000 113.50000000 2.20000000
v 120.40000000 81.70000000 2.20000000
v 120.40000000 93.20000000 2.20000000
v 91.50000000 80.90000000 2.20000000
v 91.50000000 81.70000000 2.20000000
v 120.40000000 112.70000000 2.20000000
v 91.50000000 113.50000000 2.20000000
v 91.50000000 112.70000000 2.20000000
v 120.40000000 101.20000000 2.20000000
v 83.50000000 113.50000000 2.20000000
v 54.60000000 112.70000000 2.20000000
v 83.50000000 112.70000000 2.20000000
v 53.80000000 113.50000000 2.20000000
v 53.80000000 101.20000000 2.20000000
v 54.60000000 101.20000000 2.20000000
v 54.60000000 93.20000000 2.20000000
v 53.80000000 93.20000000 2.20000000
v 54.60000000 81.70000000 2.20000000
v 83.50000000 80.90000000 2.20000000
v 83.50000000 81.70000000 2.20000000
v 53.80000000 80.90000000 2.20000000
v 61.20000000 33.10000000 2.20000000
v 61.20000000 47.30000000 2.20000000
v 61.20000000 55.30000000 2.20000000
v 61.20000000 69.50000000 2.20000000
v 60.40000000 33.90000000 2.20000000
v 60.40000000 47.30000000 2.20000000
v 39.00000000 33.10000000 2.20000000
v 39.00000000 33.90000000 2.20000000
v 60.40000000 68.70000000 2.20000000
v 39.00000000 69.50000000 2.20000000
v 39.00000000 68.70000000 2.20000000
v 60.40000000 55.30000000 2.20000000
v 31.00000000 69.50000000 2.20000000
v 9.60000000 68.70000000 2.20000000
v 31.00000000 68.70000000 2.20000000
v 8.80000000 69.50000000 2.20000000
v 8.80000000 55.30000000 2.20000000
v 9.60000000 55.30000000 2.20000000
v 9.60000000 47.30000000 2.20000000
v 8.80000000 47.30000000 2.20000000
v 9.60000000 33.90000000 2.20000000
v 31.00000000 33.10000000 2.20000000
v 31.00000000 33.90000000 2.20000000
v 8.80000000 33.10000000 2.20000000
v 132.45000000 39.50000000 2.20000000
v 101.55000000 38.70000000 2.20000000
v 132.45000000 38.70000000 2.20000000
v 100.75000000 39.50000000 2.20000000
v 100.75000000 29.30000000 2.20000000
v 101.55000000 29.30000000 2.20000000
v 101.55000000 21.30000000 2.20000000
v 100.75000000 21.30000000 2.20000000
v 101.55000000 11.90000000 2.20000000
v 132.45000000 11.10000000 2.20000000
v 132.45000000 11.90000000 2.20000000
v 100.75000000 11.10000000 2.20000000
v 171.35000000 11.90000000 2.20000000
v 171.35000000 15.30140000 2.20000000
v 140.45000000 11.10000000 2.20000000
v 140.45000000 11.90000000 2.20000000
v 171.35000000 38.70000000 2.20000000
v 140.45000000 39.50000000 2.20000000
v 140.45000000 38.70000000 2.20000000
v 171.35000000 35.29860000 2.20000000
v 171.35000000 16.55000000 1.95000000
v 171.35000000 21.30000000 1.95000000
v 171.35000000 15.91600000 2.01245000
v 171.35000000 15.30630000 2.19739000
v 171.35000000 35.29370000 2.19739000
v 171.35000000 34.68400000 2.01245000
v 171.35000000 34.05000000 1.95000000
v 171.35000000 29.30000000 1.95000000
v 154.45000000 74.50000000 2.20000000
v 145.55000000 73.70000000 2.20000000
v 154.45000000 73.70000000 2.20000000
v 144.75000000 74.50000000 2.20000000
v 144.75000000 67.80000000 2.20000000
v 145.55000000 67.80000000 2.20000000
v 145.55000000 59.80000000 2.20000000
v 144.75000000 59.80000000 2.20000000
v 145.55000000 53.90000000 2.20000000
v 154.45000000 53.10000000 2.20000000
v 154.45000000 53.90000000 2.20000000
v 144.75000000 53.10000000 2.20000000
v 171.35000000 53.90000000 2.20000000
v 171.35000000 59.80000000 2.20000000
v 162.45000000 53.10000000 2.20000000
v 162.45000000 53.90000000 2.20000000
v 171.35000000 73.70000000 2.20000000
v 162.45000000 74.50000000 2.20000000
v 162.45000000 73.70000000 2.20000000
v 171.35000000 67.80000000 2.20000000
v 66.00000000 26.30000000 7.10000000
v 66.00000000 23.30000000 5.90000000
v 66.00000000 7.30000000 5.90000000
v 66.00000000 4.30000000 7.10000000
v 58.00000000 26.30000000 7.10000000
v 58.00000000 4.30000000 7.10000000
v 58.00000000 7.30000000 5.90000000
v 58.00000000 23.30000000 5.90000000
v 5.00000000 118.30000000 0.00000057
v 4.02455000 118.20400000 0.00000057
v 172.57800000 117.45700000 0.00000057
v 171.71300000 117.91900000 0.00000057
v 0.09606930 4.02456000 0.00000057
v 0.00000000 5.00001000 0.00000057
v 169.80000000 118.30000000 0.00000057
v 170.77500000 118.20400000 0.00000057
v 3.08658000 117.91900000 0.00000057
v 0.00000000 113.30000000 0.00000057
v 0.09606930 114.27500000 0.00000057
v 3.08658000 0.38061200 0.00000057
v 4.02455000 0.09608150 0.00000057
v 171.71300000 0.38061200 0.00000057
v 172.57800000 0.84266400 0.00000057
v 173.95700000 116.07800000 0.00000057
v 174.41900000 115.21300000 0.00000057
v 0.00000000 53.15000000 0.00000057
v 0.00000000 53.15000000 0.80000100
v 0.00000000 65.15000000 0.00000057
v 0.00000000 65.15000000 0.80000100
v 0.38060000 3.08659000 0.00000057
v 2.22215000 0.84266400 0.00000057
v 5.00000000 0.00001221 0.00000057
v 174.70400000 114.27500000 0.00000057
v 173.95700000 2.22216000 0.00000057
v 173.33600000 1.46447000 0.00000057
v 169.80000000 0.00001221 0.00000057
v 0.84265100 2.22216000 0.00000057
v 2.22215000 117.45700000 0.00000057
v 1.46446000 1.46447000 0.00000057
v 174.41900000 3.08659000 0.00000057
v 174.80000000 113.30000000 0.00000057
v 174.80000000 5.00001000 0.00000057
v 1.46446000 116.83600000 0.00000057
v 174.70400000 4.02456000 0.00000057
v 2.00000000 65.15000000 0.00000057
v 0.84265100 116.07800000 0.00000057
v 0.38060000 115.21300000 0.00000057
v 67.00000000 21.30000000 0.00000057
v 173.33600000 116.83600000 0.00000057
v 170.77500000 0.09608150 0.00000057
v 67.00000000 9.30000000 0.00000057
v 50.00000000 9.30000000 0.00000057
v 50.00000000 21.30000000 0.00000057
v 2.00000000 53.15000000 0.00000057
v 65.10000000 12.20000000 5.90000000
v 58.90000000 12.20000000 5.90000000
v 58.90000000 18.40000000 5.90000000
v 65.10000000 18.40000000 5.90000000
v 50.00000000 10.30000000 0.40000000
v 50.00000000 20.30000000 0.40000000
v 66.00000000 20.30000000 0.40000000
v 66.00000000 10.30000000 0.40000000
v 63.50000000 15.30000000 0.40000000
v 63.47120000 15.00740000 0.40000000
v 63.38580000 14.72600000 0.40000000
v 63.24720000 14.46660000 0.40000000
v 63.06070000 14.23930000 0.40000000
v 62.83340000 14.05280000 0.40000000
v 62.57400000 13.91420000 0.40000000
v 62.29260000 13.82880000 0.40000000
v 62.00000000 13.80000000 0.40000000
v 61.70740000 13.82880000 0.40000000
v 61.42600000 13.91420000 0.40000000
v 60.52880000 15.00740000 0.40000000
v 60.50000000 15.30000000 0.40000000
v 60.61420000 14.72600000 0.40000000
v 60.75280000 14.46660000 0.40000000
v 60.93930000 14.23930000 0.40000000
v 61.16660000 14.05280000 0.40000000
v 63.47120000 15.59260000 0.40000000
v 63.38580000 15.87400000 0.40000000
v 63.24720000 16.13340000 0.40000000
v 63.06070000 16.36070000 0.40000000
v 62.83340000 16.54720000 0.40000000
v 62.57400000 16.68580000 0.40000000
v 62.29260000 16.77120000 0.40000000
v 62.00000000 16.80000000 0.40000000
v 61.70740000 16.77120000 0.40000000
v 61.42600000 16.68580000 0.40000000
v 61.16660000 16.54720000 0.40000000
v 60.52880000 15.59260000 0.40000000
v 60.61420000 15.87400000 0.40000000
v 60.75280000 16.13340000 0.40000000
v 60.93930000 16.36070000 0.40000000
v 65.10000000 18.40000000 6.50000000
v 65.10000000 12.20000000 6.50000000
v 58.90000000 12.20000000 6.50000000
v 58.90000000 18.40000000 6.50000000
v 2.00000000 65.15000000 0.80000100
v 2.00000000 53.15000000 0.80000100
v 62.00000000 13.80000000 2.00000000
v 61.70740000 13.82880000 2.00000000
v 63.24720000 16.13340000 2.00000000
v 63.06070000 16.36070000 2.00000000
v 63.38580000 14.72600000 2.00000000
v 63.47120000 15.00740000 2.00000000
v 62.57400000 16.68580000 2.00000000
v 62.83340000 16.54720000 2.00000000
v 60.75280000 14.46660000 2.00000000
v 60.93930000 14.23930000 2.00000000
v 63.50000000 15.30000000 2.00000000
v 63.47120000 15.59260000 2.00000000
v 63.38580000 15.87400000 2.00000000
v 62.29260000 16.77120000 2.00000000
v 61.42600000 13.91420000 2.00000000
v 61.16660000 16.54720000 2.00000000
v 61.42600000 16.68580000 2.00000000
v 63.24720000 14.46660000 2.00000000
v 62.57400000 13.91420000 2.00000000
v 62.29260000 13.82880000 2.00000000
v 60.52880000 15.59260000 2.00000000
v 60.50000000 15.30000000 2.00000000
v 60.61420000 14.72600000 2.00000000
v 60.75280000 16.13340000 2.00000000
v 60.61420000 15.87400000 2.00000000
v 61.16660000 14.05280000 2.00000000
v 61.70740000 16.77120000 2.00000000
v 63.06070000 14.23930000 2.00000000
v 62.83340000 14.05280000 2.00000000
v 62.00000000 16.80000000 2.00000000
v 60.93930000 16.36070000 2.00000000
v 60.52880000 15.00740000 2.00000000
v 63.47120000 15.00740000 0.11000000
v 63.38580000 14.72600000 0.11000000
v 62.83340000 16.54720000 0.11000000
v 62.57400000 16.68580000 0.11000000
v 62.29260000 13.82880000 0.11000000
v 62.57400000 13.91420000 0.11000000
v 61.42600000 13.91420000 0.11000000
v 61.70740000 13.82880000 0.11000000
v 63.47120000 15.59260000 0.11000000
v 63.50000000 15.30000000 0.11000000
v 63.24720000 16.13340000 0.11000000
v 63.38580000 15.87400000 0.11000000
v 62.29260000 16.77120000 0.11000000
v 63.06070000 16.36070000 0.11000000
v 60.61420000 14.72600000 0.11000000
v 60.52880000 15.00740000 0.11000000
v 60.52880000 15.59260000 0.11000000
v 60.61420000 15.87400000 0.11000000
v 60.93930000 14.23930000 0.11000000
v 60.75280000 14.46660000 0.11000000
v 60.50000000 15.30000000 0.11000000
v 61.70740000 16.77120000 0.11000000
v 61.42600000 16.68580000 0.11000000
v 63.24720000 14.46660000 0.11000000
v 61.16660000 14.05280000 0.11000000
v 62.00000000 13.80000000 0.11000000
v 62.83340000 14.05280000 0.11000000
v 63.06070000 14.23930000 0.11000000
v 62.00000000 16.80000000 0.11000000
v 61.16660000 16.54720000 0.11000000
v 60.93930000 16.36070000 0.11000000
v 60.75280000 16.13340000 0.11000000
f 1 2 3
f 4 2 1
f 5 2 4
f 2 5 6
f 7 8 9
f 10 7 11
f 12 11 13
f 14 13 15
f 7 10 8
f 11 12 10
f 13 14 12
f 14 15 16
f 17 18 19
f 17 20 18
f 17 21 20
f 17 22 21
f 22 17 23
f 24 19 18
f 25 19 24
f 26 19 25
f 27 19 26
f 28 19 27
f 29 19 28
f 30 19 29
f 31 19 30
f 32 19 31
f 8 33 9
f 34 33 8
f 33 34 35
f 36 35 34
f 35 36 37
f 38 37 36
f 37 38 39
f 40 39 38
f 39 40 41
f 42 41 40
f 41 42 43
f 44 43 42
f 43 44 45
f 46 45 44
f 45 46 32
f 47 32 46
f 32 47 19
f 48 47 49
f 2 50 3
f 48 50 2
f 50 48 51
f 51 48 52
f 52 48 53
f 53 48 54
f 47 48 19
f 55 48 49
f 56 48 55
f 54 48 56
f 57 58 59
f 58 60 61
f 60 58 57
f 62 6 63
f 6 62 2
f 61 2 62
f 61 64 2
f 64 61 60
f 17 65 23
f 66 65 17
f 65 66 67
f 23 65 68
f 69 16 15
f 16 69 70
f 71 60 72
f 60 71 64
f 73 74 75
f 74 73 76
f 77 78 79
f 78 77 80
f 79 64 81
f 71 81 64
f 71 77 82
f 77 71 80
f 80 71 73
f 48 73 71
f 73 48 76
f 81 71 82
f 78 64 79
f 64 78 2
f 75 2 78
f 74 2 75
f 83 2 74
f 48 83 84
f 83 48 2
f 76 48 84
f 85 17 86
f 19 86 17
f 87 19 88
f 86 19 87
f 17 85 66
f 89 85 88
f 85 89 66
f 89 88 19
f 57 90 60
f 91 90 57
f 72 92 91
f 90 91 92
f 93 60 90
f 72 93 94
f 93 72 60
f 92 72 94
f 95 96 97
f 98 96 95
f 99 96 98
f 100 96 99
f 101 96 100
f 96 101 102
f 96 103 97
f 62 103 96
f 103 62 104
f 62 96 105
f 104 62 106
f 106 62 63
f 107 105 96
f 108 109 110
f 111 112 113
f 111 114 112
f 111 115 114
f 111 116 115
f 117 116 111
f 116 117 118
f 117 119 118
f 120 119 117
f 120 121 119
f 120 122 121
f 110 122 120
f 123 110 124
f 125 110 123
f 126 110 125
f 122 110 126
f 127 128 129
f 127 130 128
f 127 131 130
f 127 132 131
f 113 132 127
f 132 113 133
f 133 113 112
f 127 134 135
f 134 127 65
f 136 127 129
f 137 127 136
f 138 127 137
f 68 127 138
f 127 68 65
f 110 139 124
f 110 140 139
f 110 141 140
f 142 141 110
f 143 110 109
f 144 110 143
f 145 143 146
f 144 143 145
f 142 110 144
f 141 142 69
f 69 142 70
f 143 147 146
f 143 148 147
f 143 149 148
f 143 150 149
f 143 151 150
f 151 143 152
f 153 154 155
f 154 153 156
f 61 157 58
f 157 61 158
f 105 61 62
f 61 105 158
f 157 59 58
f 59 157 159
f 160 65 67
f 65 160 134
f 160 66 89
f 66 160 67
f 161 162 163
f 162 161 164
f 163 165 166
f 165 163 167
f 162 167 163
f 167 162 168
f 169 170 171
f 170 169 172
f 173 174 175
f 174 173 176
f 177 176 173
f 176 177 178
f 174 179 180
f 179 174 176
f 181 182 183
f 182 184 185
f 184 182 181
f 186 187 188
f 180 189 190
f 191 190 189
f 190 191 192
f 171 193 194
f 193 171 195
f 170 195 171
f 195 170 196
f 159 197 91
f 159 198 197
f 157 169 198
f 169 157 172
f 192 172 199
f 165 173 192
f 173 165 177
f 165 192 199
f 172 192 191
f 172 157 199
f 157 161 200
f 161 158 164
f 161 157 158
f 199 157 200
f 157 198 159
f 201 187 202
f 203 187 201
f 187 203 204
f 205 180 179
f 205 179 202
f 206 202 179
f 206 207 202
f 207 204 203
f 208 207 206
f 208 209 204
f 209 210 211
f 209 208 210
f 207 208 204
f 212 213 214
f 212 215 213
f 212 216 215
f 212 217 216
f 212 218 217
f 212 219 218
f 212 220 219
f 212 221 220
f 212 222 221
f 212 223 222
f 212 224 223
f 209 224 212
f 225 209 226
f 227 209 225
f 228 209 227
f 229 209 228
f 230 209 229
f 224 209 230
f 231 214 213
f 232 214 231
f 233 214 232
f 234 214 233
f 235 214 234
f 236 214 235
f 237 214 236
f 238 214 237
f 239 214 238
f 240 214 239
f 211 240 241
f 211 226 209
f 226 211 242
f 242 211 243
f 243 211 244
f 244 211 245
f 245 211 241
f 240 211 214
f 246 247 248
f 247 246 186
f 19 249 250
f 249 19 251
f 19 250 252
f 48 251 19
f 19 252 253
f 251 48 254
f 19 253 255
f 254 48 256
f 256 48 257
f 258 19 255
f 259 19 258
f 260 19 259
f 261 19 260
f 261 89 19
f 89 262 160
f 193 263 262
f 263 193 264
f 193 262 197
f 89 197 262
f 89 91 197
f 261 91 89
f 265 91 261
f 72 265 266
f 72 266 267
f 72 267 268
f 265 72 91
f 269 72 270
f 270 72 268
f 257 48 271
f 48 272 271
f 48 273 272
f 48 274 273
f 48 275 274
f 48 276 275
f 71 276 48
f 276 71 277
f 277 71 278
f 278 71 279
f 71 280 279
f 72 281 71
f 282 72 269
f 283 71 281
f 284 72 282
f 285 71 283
f 72 284 281
f 71 286 280
f 71 287 286
f 71 285 287
f 263 288 289
f 288 263 290
f 264 290 263
f 290 264 291
f 288 292 293
f 292 288 290
f 248 294 295
f 294 248 296
f 247 296 248
f 296 247 297
f 298 299 300
f 299 298 301
f 300 302 303
f 302 300 304
f 299 304 300
f 304 299 305
f 134 306 135
f 302 307 306
f 307 302 308
f 302 306 309
f 134 309 306
f 134 310 309
f 311 298 310
f 298 311 301
f 312 301 311
f 294 313 314
f 313 294 315
f 294 314 312
f 316 312 314
f 134 293 310
f 293 134 317
f 160 317 134
f 317 160 262
f 307 318 319
f 318 307 320
f 308 320 307
f 320 308 321
f 318 117 111
f 117 318 320
f 322 109 108
f 304 308 302
f 308 304 322
f 323 322 304
f 322 323 109
f 314 323 316
f 323 314 109
f 313 324 325
f 324 313 326
f 315 326 313
f 326 315 327
f 324 153 155
f 153 324 326
f 328 105 107
f 296 315 294
f 315 296 328
f 329 328 296
f 328 329 105
f 188 105 329
f 195 264 193
f 264 195 205
f 189 205 195
f 180 205 189
f 246 187 186
f 181 188 187
f 330 188 181
f 330 181 183
f 188 330 105
f 185 105 330
f 167 177 165
f 177 167 208
f 210 208 167
f 211 210 184
f 158 210 331
f 210 158 184
f 185 158 105
f 184 158 185
f 164 158 331
f 292 310 293
f 311 310 292
f 301 312 316
f 311 332 312
f 202 332 205
f 332 202 246
f 187 246 202
f 205 332 311
f 59 91 57
f 91 59 159
f 333 334 335
f 334 333 336
f 337 338 339
f 338 337 340
f 341 336 333
f 336 341 342
f 343 344 345
f 344 343 346
f 335 347 348
f 347 335 334
f 349 350 351
f 350 349 352
f 335 341 333
f 348 341 335
f 348 353 341
f 349 353 348
f 349 345 353
f 351 345 349
f 351 343 345
f 90 351 354
f 351 90 343
f 90 354 355
f 92 343 90
f 343 92 338
f 338 92 339
f 348 352 349
f 352 348 347
f 345 356 353
f 356 345 344
f 357 90 355
f 90 357 93
f 353 342 341
f 342 353 356
f 350 354 351
f 354 350 358
f 358 355 354
f 355 358 357
f 94 339 92
f 339 94 337
f 340 343 338
f 343 340 346
f 342 334 336
f 356 334 342
f 356 347 334
f 344 347 356
f 344 352 347
f 346 352 344
f 346 350 352
f 94 346 340
f 346 94 350
f 94 340 337
f 93 350 94
f 350 93 358
f 358 93 357
f 359 360 361
f 360 359 362
f 363 364 365
f 364 363 366
f 367 362 359
f 362 367 368
f 369 370 371
f 370 369 372
f 361 373 374
f 373 361 360
f 375 376 377
f 376 375 378
f 361 367 359
f 374 367 361
f 374 379 367
f 375 379 374
f 375 371 379
f 377 371 375
f 377 369 371
f 86 377 380
f 377 86 369
f 86 380 381
f 87 369 86
f 369 87 364
f 364 87 365
f 374 378 375
f 378 374 373
f 371 382 379
f 382 371 370
f 383 86 381
f 86 383 85
f 379 368 367
f 368 379 382
f 368 360 362
f 382 360 368
f 382 373 360
f 370 373 382
f 370 378 373
f 372 378 370
f 372 376 378
f 88 372 366
f 372 88 376
f 88 366 363
f 85 376 88
f 376 85 384
f 384 85 383
f 376 380 377
f 380 376 384
f 384 381 380
f 381 384 383
f 88 365 87
f 365 88 363
f 366 369 364
f 369 366 372
f 385 386 387
f 386 385 388
f 389 390 391
f 390 389 392
f 393 394 395
f 394 393 396
f 397 398 399
f 398 397 400
f 388 394 386
f 394 388 395
f 386 79 387
f 394 79 386
f 79 394 77
f 77 401 402
f 400 77 394
f 77 400 401
f 396 400 394
f 396 398 400
f 390 398 396
f 390 403 398
f 392 403 390
f 392 404 403
f 404 392 405
f 406 77 402
f 77 406 82
f 407 392 389
f 392 407 405
f 408 402 401
f 402 408 406
f 81 387 79
f 387 81 385
f 409 405 407
f 405 409 404
f 408 82 406
f 397 82 408
f 82 397 81
f 81 388 385
f 395 81 397
f 81 395 388
f 399 395 397
f 399 393 395
f 410 393 399
f 410 391 393
f 409 391 410
f 409 389 391
f 389 409 407
f 399 403 410
f 403 399 398
f 410 404 409
f 404 410 403
f 391 396 393
f 396 391 390
f 397 401 400
f 401 397 408
f 411 412 413
f 412 411 414
f 415 416 417
f 416 415 418
f 419 420 421
f 420 419 422
f 423 424 425
f 424 423 426
f 414 420 412
f 420 414 421
f 412 75 413
f 420 75 412
f 75 420 73
f 73 427 428
f 426 73 420
f 73 426 427
f 422 426 420
f 422 424 426
f 416 424 422
f 416 429 424
f 418 429 416
f 418 430 429
f 430 418 431
f 432 73 428
f 73 432 80
f 433 418 415
f 418 433 431
f 434 428 427
f 428 434 432
f 78 413 75
f 413 78 411
f 435 431 433
f 431 435 430
f 425 429 436
f 429 425 424
f 436 430 435
f 430 436 429
f 417 422 419
f 422 417 416
f 423 427 426
f 427 423 434
f 434 80 432
f 423 80 434
f 80 423 78
f 78 414 411
f 421 78 423
f 78 421 414
f 425 421 423
f 425 419 421
f 436 419 425
f 436 417 419
f 435 417 436
f 435 415 417
f 415 435 433
f 74 437 83
f 437 74 438
f 438 439 437
f 439 438 440
f 441 442 443
f 442 441 444
f 445 446 447
f 446 445 448
f 449 450 451
f 450 449 452
f 440 446 439
f 446 440 447
f 439 83 437
f 446 83 439
f 83 446 84
f 84 453 454
f 452 84 446
f 84 452 453
f 448 452 446
f 448 450 452
f 442 450 448
f 442 455 450
f 444 455 442
f 444 456 455
f 456 444 457
f 458 84 454
f 84 458 76
f 459 444 441
f 444 459 457
f 460 454 453
f 454 460 458
f 461 457 459
f 457 461 456
f 460 76 458
f 449 76 460
f 76 449 74
f 74 440 438
f 447 74 449
f 74 447 440
f 451 447 449
f 451 445 447
f 462 445 451
f 462 443 445
f 461 443 462
f 461 441 443
f 441 461 459
f 451 455 462
f 455 451 450
f 462 456 461
f 456 462 455
f 443 448 445
f 448 443 442
f 449 453 452
f 453 449 460
f 463 292 464
f 292 463 311
f 465 317 466
f 317 465 293
f 467 464 468
f 464 467 463
f 469 467 470
f 467 469 463
f 466 471 465
f 472 471 466
f 471 472 473
f 465 471 474
f 475 476 477
f 478 476 475
f 479 476 478
f 476 479 480
f 481 482 483
f 483 484 485
f 483 486 484
f 486 483 482
f 191 482 172
f 482 191 486
f 169 478 198
f 478 169 479
f 191 484 486
f 484 191 189
f 205 463 469
f 463 205 311
f 197 478 475
f 478 197 198
f 317 472 466
f 472 317 262
f 291 468 290
f 468 291 467
f 288 471 289
f 471 288 474
f 483 170 481
f 170 483 196
f 480 194 476
f 194 480 171
f 195 483 485
f 483 195 196
f 291 470 467
f 470 291 264
f 194 477 476
f 477 194 193
f 263 471 473
f 471 263 289
f 205 470 264
f 470 205 469
f 263 472 262
f 472 263 473
f 484 195 485
f 195 484 189
f 477 197 475
f 197 477 193
f 170 482 481
f 482 170 172
f 292 468 464
f 468 292 290
f 169 480 479
f 480 169 171
f 288 465 474
f 465 288 293
f 487 179 488
f 179 487 206
f 489 190 490
f 190 489 180
f 491 488 492
f 488 491 487
f 493 491 494
f 491 493 487
f 490 495 489
f 496 495 490
f 495 496 497
f 489 495 498
f 499 500 501
f 502 500 499
f 503 500 502
f 500 503 504
f 505 506 507
f 507 508 509
f 507 510 508
f 510 507 506
f 331 506 164
f 506 331 510
f 161 502 200
f 502 161 503
f 331 508 510
f 508 331 210
f 208 487 493
f 487 208 206
f 199 502 499
f 502 199 200
f 190 496 490
f 496 190 192
f 178 492 176
f 492 178 491
f 174 495 175
f 495 174 498
f 507 162 505
f 162 507 168
f 504 166 500
f 166 504 163
f 167 507 509
f 507 167 168
f 178 494 491
f 494 178 177
f 166 501 500
f 501 166 165
f 173 495 497
f 495 173 175
f 208 494 177
f 494 208 493
f 173 496 192
f 496 173 497
f 508 167 509
f 167 508 210
f 501 199 499
f 199 501 165
f 162 506 505
f 506 162 164
f 179 492 488
f 492 179 176
f 161 504 503
f 504 161 163
f 174 489 498
f 489 174 180
f 511 512 513
f 514 512 511
f 515 512 514
f 512 515 516
f 517 518 519
f 519 520 521
f 519 522 520
f 522 519 518
f 523 102 524
f 102 523 96
f 525 523 526
f 523 525 96
f 143 527 152
f 528 527 143
f 527 528 529
f 152 527 530
f 188 518 186
f 518 188 522
f 246 514 332
f 514 246 515
f 188 520 522
f 520 188 329
f 328 96 525
f 96 328 107
f 312 514 511
f 514 312 332
f 109 528 143
f 528 109 314
f 326 531 532
f 327 531 326
f 531 327 533
f 327 534 533
f 327 524 534
f 524 327 523
f 325 530 527
f 325 535 530
f 325 536 535
f 325 537 536
f 324 537 325
f 537 324 538
f 516 295 512
f 295 516 248
f 519 247 517
f 247 519 297
f 296 519 521
f 519 296 297
f 327 526 523
f 526 327 315
f 295 513 512
f 513 295 294
f 313 527 529
f 527 313 325
f 328 526 315
f 526 328 525
f 313 528 314
f 528 313 529
f 520 296 521
f 296 520 329
f 513 312 511
f 312 513 294
f 247 518 517
f 518 247 186
f 153 532 156
f 532 153 326
f 246 516 515
f 516 246 248
f 324 154 538
f 154 324 155
f 539 540 541
f 542 540 539
f 543 540 542
f 540 543 544
f 545 546 547
f 547 548 549
f 547 550 548
f 550 547 546
f 551 120 552
f 120 551 110
f 553 551 554
f 551 553 110
f 127 555 113
f 556 555 127
f 555 556 557
f 113 555 558
f 316 546 301
f 546 316 550
f 298 542 310
f 542 298 543
f 316 548 550
f 548 316 323
f 322 110 553
f 110 322 108
f 309 542 539
f 542 309 310
f 135 556 127
f 556 135 306
f 321 552 320
f 552 321 551
f 318 555 319
f 555 318 558
f 547 299 545
f 299 547 305
f 544 303 540
f 303 544 300
f 304 547 549
f 547 304 305
f 321 554 551
f 554 321 308
f 303 541 540
f 541 303 302
f 307 555 557
f 555 307 319
f 322 554 308
f 554 322 553
f 307 556 306
f 556 307 557
f 548 304 549
f 304 548 323
f 541 309 539
f 309 541 302
f 299 546 545
f 546 299 301
f 117 552 120
f 552 117 320
f 298 544 543
f 544 298 300
f 318 113 558
f 113 318 111
f 559 560 202
f 559 561 560
f 562 561 559
f 330 561 562
f 561 330 183
f 202 560 201
f 563 562 559
f 562 563 564
f 182 185 565
f 566 207 203
f 207 566 563
f 565 563 566
f 565 564 563
f 564 565 185
f 203 560 566
f 560 203 201
f 202 563 559
f 563 202 207
f 185 562 564
f 562 185 330
f 183 565 561
f 565 183 182
f 567 266 265
f 266 567 568
f 569 259 258
f 259 569 570
f 571 283 572
f 283 571 285
f 573 265 261
f 265 573 567
f 570 260 259
f 260 570 574
f 568 267 266
f 267 568 575
f 574 261 260
f 261 574 573
f 576 284 577
f 284 576 281
f 578 277 278
f 277 578 579
f 580 272 273
f 272 580 581
f 252 582 253
f 582 252 583
f 584 572 585
f 586 281 576
f 587 281 586
f 585 281 587
f 585 283 281
f 283 585 572
f 588 285 571
f 285 588 287
f 589 278 279
f 278 589 578
f 579 276 277
f 276 579 590
f 250 583 252
f 583 250 591
f 271 592 257
f 592 271 593
f 590 275 276
f 275 590 594
f 595 287 588
f 287 595 286
f 575 268 267
f 268 575 596
f 597 286 595
f 286 597 280
f 257 598 256
f 598 257 592
f 251 599 249
f 599 251 600
f 597 279 280
f 279 597 589
f 581 271 272
f 271 581 593
f 596 270 268
f 270 596 601
f 254 600 251
f 600 254 602
f 576 567 603
f 567 576 596
f 596 576 601
f 601 576 604
f 604 576 605
f 576 603 586
f 605 576 577
f 594 600 602
f 600 606 599
f 594 602 598
f 600 594 606
f 594 598 592
f 573 599 606
f 594 592 593
f 591 573 583
f 594 593 581
f 583 573 582
f 594 581 580
f 582 573 607
f 594 580 608
f 607 573 569
f 569 573 570
f 570 573 574
f 606 594 609
f 590 609 594
f 610 590 611
f 609 590 610
f 599 573 591
f 603 606 611
f 572 611 590
f 603 611 612
f 572 590 579
f 606 567 573
f 572 579 578
f 606 603 567
f 572 578 589
f 567 596 568
f 568 596 575
f 572 589 597
f 572 597 595
f 572 595 588
f 572 588 571
f 611 572 612
f 612 572 584
f 605 269 604
f 269 605 282
f 249 591 250
f 591 249 599
f 594 274 275
f 274 594 608
f 577 282 605
f 282 577 284
f 256 602 254
f 602 256 598
f 604 270 601
f 270 604 269
f 608 273 274
f 273 608 580
f 253 607 255
f 607 253 582
f 607 258 255
f 258 607 569
f 561 613 560
f 561 614 613
f 614 565 615
f 565 614 561
f 616 560 613
f 615 560 616
f 615 566 560
f 566 615 565
f 609 187 606
f 187 609 181
f 211 184 617
f 618 204 209
f 204 618 611
f 617 611 618
f 617 610 611
f 610 617 184
f 609 184 181
f 184 609 610
f 611 187 204
f 187 611 606
f 214 619 212
f 619 214 620
f 617 214 211
f 214 617 620
f 619 209 212
f 209 619 618
f 533 56 55
f 56 533 534
f 531 55 49
f 55 531 533
f 535 46 44
f 46 535 536
f 151 44 42
f 152 44 151
f 535 152 530
f 152 535 44
f 536 47 46
f 47 536 537
f 144 14 142
f 14 144 12
f 148 34 147
f 34 148 36
f 3 103 1
f 103 3 97
f 52 98 51
f 98 52 99
f 5 63 6
f 63 5 106
f 47 154 49
f 537 154 47
f 154 537 538
f 156 49 154
f 531 156 532
f 156 531 49
f 149 36 148
f 36 149 38
f 51 95 50
f 95 51 98
f 53 99 52
f 99 53 100
f 145 12 144
f 12 145 10
f 150 42 40
f 42 150 151
f 150 38 149
f 38 150 40
f 4 106 5
f 106 4 104
f 50 97 3
f 97 50 95
f 1 104 4
f 104 1 103
f 56 102 54
f 534 102 56
f 102 534 524
f 54 102 101
f 101 53 54
f 53 101 100
f 142 16 70
f 16 142 14
f 147 8 146
f 8 147 34
f 146 10 145
f 10 146 8
f 114 31 30
f 31 114 115
f 131 25 130
f 25 131 26
f 37 125 35
f 125 37 126
f 33 124 9
f 124 33 123
f 9 139 7
f 139 9 124
f 112 30 29
f 30 112 114
f 13 69 15
f 69 13 141
f 39 126 37
f 126 39 122
f 11 141 13
f 141 11 140
f 132 28 27
f 28 132 133
f 133 29 28
f 29 133 112
f 128 18 129
f 18 128 24
f 35 123 33
f 123 35 125
f 132 26 131
f 26 132 27
f 129 20 136
f 20 129 18
f 116 45 32
f 45 116 118
f 115 32 31
f 32 115 116
f 136 21 137
f 21 136 20
f 7 140 11
f 140 7 139
f 119 41 43
f 41 119 121
f 137 22 138
f 22 137 21
f 130 24 128
f 24 130 25
f 118 43 45
f 43 118 119
f 138 23 68
f 23 138 22
f 121 39 41
f 39 121 122
f 620 621 619
f 620 622 621
f 620 623 622
f 620 624 623
f 620 625 624
f 620 626 625
f 620 627 626
f 620 628 627
f 620 629 628
f 620 630 629
f 620 631 630
f 617 631 620
f 632 617 633
f 634 617 632
f 635 617 634
f 636 617 635
f 637 617 636
f 631 617 637
f 638 619 621
f 639 619 638
f 640 619 639
f 641 619 640
f 642 619 641
f 643 619 642
f 644 619 643
f 645 619 644
f 646 619 645
f 647 619 646
f 618 647 648
f 618 633 617
f 633 618 649
f 649 618 650
f 650 618 651
f 651 618 652
f 652 618 648
f 647 618 619
f 613 653 616
f 653 613 654
f 655 653 654
f 653 655 656
f 655 615 656
f 615 655 614
f 613 655 654
f 655 613 614
f 615 653 656
f 653 615 616
f 612 657 603
f 657 612 658
f 585 657 658
f 657 585 587
f 612 585 658
f 585 612 584
f 586 657 587
f 657 586 603
f 239 659 660
f 659 239 238
f 661 218 662
f 218 661 217
f 663 231 664
f 231 663 232
f 219 665 666
f 665 219 220
f 245 667 244
f 667 245 668
f 669 215 670
f 215 669 213
f 671 217 661
f 217 671 216
f 220 672 665
f 672 220 221
f 240 660 673
f 660 240 239
f 664 213 669
f 213 664 231
f 224 674 675
f 674 224 230
f 676 232 663
f 232 676 233
f 237 677 678
f 677 237 236
f 226 679 225
f 679 226 680
f 244 681 243
f 681 244 667
f 227 682 228
f 682 227 683
f 241 673 684
f 673 241 240
f 238 678 659
f 678 238 237
f 223 675 685
f 675 223 224
f 670 664 669
f 671 664 670
f 671 663 664
f 661 663 671
f 661 676 663
f 662 676 661
f 662 686 676
f 666 686 662
f 666 687 686
f 665 687 666
f 665 677 687
f 672 677 665
f 672 678 677
f 688 678 672
f 688 659 678
f 685 659 688
f 685 660 659
f 675 660 685
f 675 673 660
f 674 673 675
f 674 684 673
f 689 684 674
f 689 668 684
f 682 668 689
f 682 667 668
f 683 667 682
f 683 681 667
f 679 681 683
f 679 690 681
f 690 679 680
f 235 686 687
f 686 235 234
f 686 233 676
f 233 686 234
f 222 685 688
f 685 222 223
f 670 216 671
f 216 670 215
f 236 687 677
f 687 236 235
f 242 680 226
f 680 242 690
f 245 684 668
f 684 245 241
f 218 666 662
f 666 218 219
f 228 689 229
f 689 228 682
f 230 689 674
f 689 230 229
f 225 683 227
f 683 225 679
f 243 690 242
f 690 243 681
f 221 688 672
f 688 221 222
f 623 691 622
f 691 623 692
f 693 643 642
f 643 693 694
f 695 627 628
f 627 695 696
f 697 630 631
f 630 697 698
f 621 699 638
f 699 621 700
f 639 701 640
f 701 639 702
f 694 644 643
f 644 694 703
f 704 642 641
f 642 704 693
f 705 632 706
f 632 705 634
f 622 700 621
f 700 622 691
f 707 650 708
f 650 707 649
f 709 635 710
f 635 709 636
f 711 649 707
f 649 711 633
f 712 647 646
f 647 712 713
f 624 692 623
f 692 624 714
f 709 637 636
f 637 709 715
f 716 628 629
f 628 716 695
f 710 634 705
f 634 710 635
f 717 625 626
f 625 717 718
f 691 699 700
f 692 699 691
f 692 702 699
f 714 702 692
f 714 701 702
f 718 701 714
f 718 704 701
f 717 704 718
f 717 693 704
f 696 693 717
f 696 694 693
f 695 694 696
f 695 703 694
f 716 703 695
f 716 719 703
f 698 719 716
f 698 712 719
f 697 712 698
f 697 713 712
f 715 713 697
f 715 720 713
f 709 720 715
f 709 721 720
f 710 721 709
f 710 722 721
f 705 722 710
f 705 708 722
f 706 708 705
f 706 707 708
f 707 706 711
f 708 651 722
f 651 708 650
f 720 652 648
f 652 720 721
f 625 714 624
f 714 625 718
f 638 702 639
f 702 638 699
f 706 633 711
f 633 706 632
f 696 626 627
f 626 696 717
f 715 631 637
f 631 715 697
f 698 629 630
f 629 698 716
f 719 646 645
f 646 719 712
f 722 652 721
f 652 722 651
f 713 648 647
f 648 713 720
f 640 704 641
f 704 640 701
f 703 645 644
f 645 703 719

